<svg width="126" height="126" viewBox="0 0 126 126" fill="none" xmlns="http://www.w3.org/2000/svg">
<path d="M62.759 109.828C88.7548 109.828 109.829 88.7546 109.829 62.7588C109.829 36.763 88.7548 15.6892 62.759 15.6892C36.7632 15.6892 15.6895 36.763 15.6895 62.7588C15.6895 88.7546 36.7632 109.828 62.759 109.828Z" stroke="white" stroke-width="10.5906" stroke-miterlimit="10" stroke-linecap="round"/>
<path d="M62.7599 42.9382L44.1062 58.5864M62.7599 42.9382L81.4137 58.5864M62.7599 42.9382V28.8247M44.1062 58.5864L49.0313 78.4488M44.1062 58.5864L31.1449 53.095M49.0313 78.4488H76.4886M49.0313 78.4488L42.167 90.2162M76.4886 78.4488L81.4137 58.5864M76.4886 78.4488L83.3529 90.2162L76.4886 107.622M81.4137 58.5864L94.375 53.095M94.375 53.095L100.695 35.135M94.375 53.095L109.584 66.1837M31.1449 53.095L24.8248 35.135M31.1449 53.095L15.9355 66.1837M62.7599 28.8247L78.4498 18.3713M62.7599 28.8247L47.0701 18.3689M100.695 90.2162H83.8432M42.167 90.2162L49.122 107.745M42.167 90.2162H24.9155" stroke="white" stroke-width="10.5906" stroke-linecap="round" stroke-linejoin="round"/>
</svg>
