<svg width="61" height="60" viewBox="0 0 61 60" fill="none" xmlns="http://www.w3.org/2000/svg">
<g clip-path="url(#clip0_1270_731)">
<path d="M30.0818 49.3317C19.0485 49.4638 9.94623 40.3276 10.0776 29.3734C10.2089 18.6622 19.1202 9.76907 30.2054 9.8618C41.1996 9.95313 50.0953 18.809 50.0421 29.6726C49.9888 40.5693 41.0328 49.3914 30.0818 49.3317ZM30.0314 11.2345C28.6364 11.2682 27.2626 11.3666 25.9201 11.701C20.2405 13.1179 15.9993 16.3572 13.518 21.6317C10.8145 27.3817 11.1659 33.0658 14.2947 38.5805C15.0756 39.9588 15.1147 39.9377 16.2861 38.9219C16.3623 38.8669 16.4335 38.8056 16.4991 38.7385C16.9002 38.2503 17.2055 38.3093 17.591 38.8088C22.2071 44.8188 30.5667 46.6404 37.3361 43.1384C39.3758 42.0846 41.1187 40.6796 42.4996 38.8531C42.8858 38.3437 43.1918 38.2208 43.6433 38.7371C43.8719 38.9985 44.153 39.2134 44.3909 39.4678C44.7849 39.8893 45.0469 39.819 45.3507 39.3364C49.0751 33.417 49.5103 27.2349 46.3106 21.0655C42.9603 14.6087 37.3191 11.4867 30.0314 11.2345ZM39.9707 43.3576C39.9551 43.1868 39.8465 43.1377 39.7485 43.0766C39.4361 42.8784 39.0968 42.8658 38.849 43.1215C38.6012 43.3772 38.2576 43.6336 38.3939 44.1015C38.5586 44.6635 38.854 45.1328 39.3566 45.4595C40.0005 45.881 40.2604 45.8255 40.9185 45.1714C41.4062 44.6846 40.7843 44.4577 40.6629 44.1219C40.5515 43.8156 40.276 43.8086 40.0311 43.9814C39.7471 44.1858 39.9004 44.3741 40.0943 44.5385C40.3342 44.7422 40.3356 45.0218 40.0424 45.0492C39.5149 45.0984 39.2934 44.6446 39.1585 44.2315C39.0549 43.9154 39.062 43.5599 39.5795 43.5774C39.7606 43.5838 39.965 43.5978 39.9707 43.3576ZM42.141 42.8848C42.425 42.9241 42.5393 43.1096 42.6827 43.2578C42.8148 43.3983 42.9667 43.529 43.157 43.3484C43.311 43.2009 43.223 43.0407 43.1172 42.9171C42.6799 42.4085 42.2364 41.905 41.7868 41.4067C41.6781 41.2852 41.5283 41.1657 41.3608 41.2915C41.1748 41.432 41.228 41.6125 41.353 41.7776C41.512 41.9884 41.6831 42.2307 41.4041 42.438C41.1663 42.615 40.9781 42.4211 40.8141 42.2399C40.6835 42.0944 40.5152 41.9638 40.3406 42.1387C40.1418 42.3368 40.2987 42.5167 40.4414 42.6768C40.8113 43.0913 41.1755 43.5114 41.556 43.9168C41.7172 44.0889 41.8727 44.4254 42.1659 44.2076C42.5052 43.9547 42.1204 43.7819 42.0026 43.595C41.8095 43.2866 41.8265 43.0478 42.141 42.8848ZM32.4083 46.4079C32.4261 46.9853 32.5645 47.442 32.8343 47.8607C33.0331 48.1684 33.3377 48.2688 33.677 48.2386C34.0164 48.2084 34.2663 48.0131 34.4033 47.6766C34.6113 47.1652 34.4793 46.6706 34.3422 46.1859C34.1704 45.5782 33.6834 45.2593 33.1474 45.3766C32.5475 45.5065 32.4786 46.0018 32.4083 46.4079ZM23.2613 44.8827C23.2613 44.1992 22.7644 43.9828 22.2923 43.81C21.8386 43.6449 21.7861 44.1036 21.6348 44.3523C21.435 44.6883 21.2565 45.0362 21.1003 45.3941C20.971 45.6829 20.6203 46.0088 21.0491 46.2912C21.4517 46.5568 21.9139 46.8055 22.398 46.4317C22.917 46.0306 23.1463 45.4602 23.2613 44.8827ZM24.5499 46.8413C24.4981 47.5143 24.6983 47.8305 25.1889 47.9492C25.6794 48.0679 26.082 47.9534 26.258 47.4483C26.4391 46.9291 26.5804 46.3945 26.7273 45.8662C26.7742 45.6969 26.8622 45.4763 26.6024 45.4033C26.3184 45.3239 26.2531 45.5438 26.1984 45.7545C26.1168 46.0657 26.0472 46.3812 25.9393 46.6832C25.8378 46.9643 25.7973 47.4153 25.3536 47.2874C24.9581 47.1729 25.1349 46.7956 25.1988 46.5146C25.2797 46.1564 25.377 45.8009 25.4629 45.4433C25.5055 45.2677 25.4842 45.1138 25.2662 45.0773C25.0987 45.0485 25.0092 45.1405 24.9681 45.2937C24.8097 45.8683 24.6543 46.4451 24.5499 46.8413ZM17.8615 44.2209C18.117 44.0601 18.3315 43.9329 18.1241 43.6589C17.9687 43.4482 17.5853 43.3077 17.8238 42.9916C18.0127 42.7422 18.2299 43.0428 18.4337 43.1061C18.4876 43.1289 18.5471 43.1356 18.6048 43.1255C18.6626 43.1154 18.7161 43.0889 18.7588 43.0492C18.8909 42.9206 18.8192 42.7984 18.739 42.6789C18.641 42.5335 18.4316 42.3874 18.6282 42.209C18.8107 42.0418 18.9683 42.2335 19.1152 42.3333C19.2622 42.4331 19.3992 42.504 19.5597 42.3825C19.6094 42.3502 19.6443 42.2997 19.6567 42.2421C19.6691 42.1844 19.6579 42.1243 19.6257 42.0748C19.4063 41.7397 19.1096 41.458 18.7404 41.3238C18.4635 41.2233 18.2988 41.5212 18.1298 41.7024C17.8146 42.042 17.507 42.3872 17.2069 42.7379C17.0507 42.9185 16.7298 43.0892 16.9577 43.3702C17.2126 43.68 17.5491 43.9315 17.86 44.2195L17.8615 44.2209ZM27.7695 48.448C28.4142 48.448 28.7067 48.167 28.7635 47.6169C28.8139 47.1097 28.4958 46.8659 28.1103 46.6573C27.9527 46.5715 27.8469 46.4381 27.9349 46.2645C27.9946 46.1479 28.1344 46.176 28.2473 46.2231C28.4284 46.2983 28.652 46.4999 28.7507 46.1697C28.8273 45.9126 28.6321 45.7405 28.4021 45.6414C27.9896 45.4637 27.6176 45.5086 27.3656 45.907C27.0766 46.3629 27.2527 47.038 27.7447 47.2818C27.9641 47.39 28.2487 47.4406 28.0947 47.7335C27.9612 47.9878 27.7397 47.8199 27.5622 47.6991C27.4266 47.6049 27.2782 47.4975 27.1362 47.6801C27.0198 47.8354 27.1015 47.9836 27.1973 48.1227C27.3556 48.351 27.5672 48.4662 27.7681 48.4465L27.7695 48.448ZM19.9402 45.6042C19.9721 45.581 20.0538 45.5536 20.0715 45.5037C20.3449 44.731 20.8049 44.0369 20.9881 43.2332C21.0064 43.1646 20.9983 43.0917 20.9654 43.0286C20.9324 42.9655 20.877 42.9168 20.8099 42.8918C20.6516 42.83 20.4755 42.8103 20.3498 42.9368C19.8427 43.439 19.3093 43.9146 18.7517 44.3615C18.5388 44.5371 18.5025 44.8286 18.8852 44.8209C19.3573 44.8118 19.6576 44.9263 19.7308 45.4222C19.7344 45.4738 19.7585 45.5218 19.7977 45.5558C19.8369 45.5899 19.8881 45.6073 19.9402 45.6042ZM31.8915 45.9821C31.8752 45.7517 31.7282 45.6667 31.5173 45.6716C31.2156 45.6787 30.9139 45.685 30.6143 45.7131C30.4574 45.7278 30.2799 45.7573 30.226 45.9477C30.1621 46.1739 30.2913 46.2856 30.4886 46.3566C30.7243 46.4402 30.7648 46.6376 30.7833 46.8554C30.8154 47.2207 30.8512 47.5857 30.8905 47.9506C30.9139 48.1719 30.8827 48.4634 31.2355 48.4213C31.5514 48.3833 31.4286 48.1276 31.435 47.9295C31.4556 47.2972 31.1304 46.587 31.8482 46.1079C31.878 46.0903 31.878 46.0264 31.8915 45.9821ZM17.6343 40.1618C17.603 40.1077 17.5768 40.0101 17.5122 39.9588C17.3794 39.8534 17.2537 39.9251 17.1416 40.0206C16.6318 40.4557 16.1223 40.8908 15.6131 41.3259C15.4128 41.4973 15.3049 41.72 15.5272 41.9153C15.7891 42.1457 15.8779 42.6178 16.3514 42.5609C16.5644 42.5342 16.7213 42.3178 16.5871 42.1563C16.0035 41.4538 16.651 41.2107 17.0379 40.8566C17.2552 40.6592 17.5477 40.5187 17.6343 40.1618ZM43.2045 40.2321C43.3238 39.9834 43.2968 39.7874 43.0505 39.6947C42.8375 39.6146 42.7062 39.7874 42.5833 39.9202C42.3796 40.1422 42.1574 40.3543 42.0019 40.6079C41.8358 40.8833 41.9884 41.224 42.2795 41.0948C42.9497 40.7983 43.1847 41.3463 43.5829 41.5964C43.8492 41.7629 44.0203 42.3895 44.4122 41.9771C44.8041 41.5648 44.1395 41.4545 43.9635 41.2149C43.7185 40.8819 43.2138 40.7344 43.2045 40.2377V40.2321ZM35.8843 44.7268C35.6592 44.7759 35.6123 44.9157 35.6968 45.1293C35.8928 45.6211 36.1164 46.1044 36.2719 46.6046C36.5779 47.5979 36.8398 47.3148 37.6137 46.9909C37.6528 46.9779 37.6888 46.9572 37.7196 46.9301C37.7504 46.9029 37.7753 46.8698 37.7929 46.8328C37.8104 46.7959 37.8201 46.7558 37.8216 46.715C37.823 46.6742 37.816 46.6335 37.8011 46.5954C37.7337 46.3847 37.603 46.3046 37.3751 46.391C36.9343 46.5582 36.7362 46.3144 36.6041 45.94C36.4955 45.6372 36.3535 45.3464 36.2229 45.052C36.1583 44.908 36.0951 44.7542 35.8843 44.7268ZM38.8582 46.1493C38.5503 45.4193 38.1698 44.7213 37.7223 44.0657C37.6513 43.9603 37.5136 43.9596 37.4099 44.0348C37.3605 44.0679 37.3247 44.1174 37.3089 44.1743C37.2932 44.2313 37.2985 44.2919 37.324 44.3453C37.67 45.023 38.0229 45.6969 38.3826 46.3671C38.3957 46.3931 38.414 46.4163 38.4363 46.4352C38.4586 46.454 38.4846 46.4683 38.5126 46.4771C38.5406 46.4859 38.5701 46.489 38.5993 46.4863C38.6286 46.4835 38.657 46.475 38.6829 46.4613C38.8043 46.4114 38.866 46.3229 38.8582 46.1493Z" fill="#4F39F6"/>
<path d="M30.0316 11.2346C37.3193 11.4868 42.9605 14.6067 46.3108 21.0698C49.5105 27.2392 49.0753 33.4213 45.3509 39.3407C45.0471 39.8233 44.783 39.895 44.3911 39.4721C44.1532 39.2178 43.8721 39.0028 43.6435 38.7415C43.192 38.2258 42.886 38.3481 42.4998 38.8574C41.1189 40.679 39.376 42.0889 37.3363 43.1427C30.5669 46.6405 22.2073 44.8189 17.5884 38.8103C17.2028 38.3094 16.8976 38.2483 16.4964 38.7401C16.4309 38.8071 16.3596 38.8685 16.2835 38.9234C15.112 39.9393 15.0766 39.9603 14.2921 38.582C11.1633 33.0673 10.8133 27.3804 13.5154 21.6332C15.9995 16.3573 20.2429 13.1209 25.9203 11.7011C27.2607 11.3646 28.6366 11.2683 30.0316 11.2346ZM33.8221 43.7722C33.357 43.7019 32.9921 43.456 32.5548 43.4673C32.1345 43.4785 31.7135 43.4406 31.2932 43.4399C29.8669 43.4399 29.857 43.4399 29.8861 41.9983C29.8932 41.6204 29.7775 41.215 30.0991 40.8743C30.9063 40.0214 32.8814 40.4247 33.2065 41.5424C33.3783 42.1325 33.4195 42.4395 34.2537 42.0995C36.2813 41.2768 38.1819 40.2638 39.4995 38.5434C40.3586 37.4193 41.2382 37.0849 42.5225 37.4664C42.7106 37.5219 42.9669 37.5999 43.1032 37.3877C43.2395 37.1756 43.1203 36.9508 43.018 36.7344C42.7227 36.107 42.4501 35.4699 42.1554 34.8411C41.929 34.3578 42.0845 34.0908 42.6006 34.003C43.1984 33.9012 43.7961 33.7986 44.3946 33.6988C44.5963 33.6644 44.8696 33.715 44.9491 33.4881C45.0336 33.2506 44.8327 33.0666 44.68 32.886C44.2136 32.3388 43.7706 31.7704 43.2857 31.2393C42.9307 30.8466 43.0187 30.6071 43.4653 30.4076C44.0806 30.1294 44.693 29.8451 45.3027 29.5547C45.7322 29.3503 45.833 29.1262 45.3623 28.8227C44.6772 28.3822 44.0134 27.9094 43.3354 27.4584C42.9854 27.228 42.9804 27.018 43.2985 26.7559C43.8536 26.2965 44.4053 25.8314 44.9463 25.3551C45.27 25.0692 45.3012 24.8233 44.8114 24.6645C44.0574 24.4208 43.3205 24.1243 42.5573 23.91C41.9822 23.7492 41.9673 23.518 42.2868 23.0839C42.6858 22.543 43.045 21.9739 43.4099 21.4091C43.6485 21.0389 43.5952 20.8408 43.089 20.7944C42.279 20.7206 41.4668 20.833 40.6553 20.6869C40.2059 20.6061 40.0164 20.5246 40.2095 20.0364C40.4374 19.4561 40.6063 18.852 40.7774 18.2527C40.8385 18.042 41.0025 17.7996 40.8023 17.5994C40.6021 17.3992 40.3692 17.5439 40.1442 17.5945C39.4392 17.7525 38.7285 17.8846 38.0257 18.0518C37.5592 18.1628 37.3711 18.0096 37.3938 17.5383C37.4236 16.9144 37.435 16.2899 37.4421 15.6661C37.4506 14.9179 37.3612 14.8638 36.7101 15.2052C36.0293 15.5628 35.3435 15.9119 34.6726 16.2864C34.3034 16.4929 34.1131 16.3967 34.0166 16.0054C33.8554 15.3549 33.7007 14.7015 33.5161 14.0566C33.3471 13.4665 33.1611 13.4173 32.7053 13.836C32.1771 14.3278 31.6446 14.8132 31.1519 15.338C30.765 15.7497 30.518 15.7981 30.2411 15.2333C29.9642 14.6685 29.6227 14.1472 29.2961 13.6175C28.9696 13.0878 28.8041 13.0977 28.4754 13.633C28.1247 14.2119 27.7449 14.7718 27.4609 15.3766C27.1599 16.0201 26.8482 15.9885 26.3527 15.5909C25.8273 15.1694 25.2508 14.8118 24.6907 14.4346C24.2321 14.1255 24.0177 14.214 23.9658 14.7626C23.9055 15.4068 23.8629 16.0553 23.8565 16.7016C23.8508 17.213 23.6563 17.3795 23.1657 17.2067C22.4416 16.951 21.7158 16.6992 20.9883 16.4515C20.4154 16.2562 20.2429 16.3967 20.3493 16.9826C20.4686 17.6422 20.5744 18.3068 20.7384 18.9559C20.8555 19.4196 20.6972 19.5404 20.2599 19.5081C19.4908 19.4519 18.721 19.409 17.9504 19.3795C17.2717 19.3535 17.1901 19.4772 17.484 20.0975C17.7609 20.6834 18.0427 21.2693 18.3686 21.8285C18.6298 22.276 18.4928 22.4298 18.0264 22.517C17.2454 22.6638 16.4752 22.8577 15.6985 23.0221C15.1419 23.1401 15.095 23.3698 15.4855 23.7625C15.9604 24.2388 16.4084 24.746 16.8777 25.2251C17.2036 25.5595 17.1894 25.7907 16.7414 26.007C16.0918 26.3204 15.4592 26.6688 14.8245 27.0137C14.1472 27.3826 14.1415 27.5308 14.7727 27.927C15.3059 28.2607 15.827 28.6155 16.3786 28.9147C16.8386 29.1641 16.7918 29.3945 16.4602 29.703C15.8987 30.2256 15.3478 30.7567 14.7933 31.2892C14.4042 31.6602 14.4603 31.9173 14.9906 32.062C15.5977 32.2299 16.1976 32.4259 16.811 32.5706C17.3434 32.6964 17.5436 32.8727 17.173 33.4024C16.7889 33.951 16.4851 34.5545 16.145 35.1334C16.0187 35.349 15.7858 35.5738 15.9278 35.8211C16.0875 36.1021 16.4247 36.0108 16.6988 36.0094C17.1425 36.0094 17.5862 35.9996 18.0299 35.9876C18.4126 35.9771 18.6831 36.1134 18.8904 36.4569C20.2947 38.7794 22.2108 40.542 24.717 41.6674C25.5086 42.0236 25.5107 42.0658 25.7819 41.2635C26.0169 40.5673 26.4698 40.247 27.206 40.3298C27.5312 40.3671 27.8578 40.4001 28.1787 40.4633C28.9561 40.6144 29.1911 40.9087 29.1896 41.6913C29.1896 42.0384 29.184 42.3854 29.1932 42.7317C29.2145 43.5354 29.1641 43.5537 28.3803 43.2727C27.7499 43.0472 27.096 42.8659 26.4478 43.2692C27.4318 43.4722 28.4193 43.5972 29.333 44.0265C29.5425 44.1248 29.7959 44.0335 30.016 43.9478C30.9887 43.5698 31.9812 43.6584 32.9815 43.7989C33.2378 43.8347 33.5026 44.0588 33.8221 43.7722Z" fill="#F1F1F7"/>
<path d="M39.9711 43.3575C39.9654 43.5978 39.7581 43.5837 39.5749 43.5774C39.0574 43.5599 39.0503 43.9153 39.1539 44.2315C39.2888 44.6445 39.5089 45.0984 40.0378 45.0492C40.331 45.0218 40.3296 44.7422 40.0896 44.5385C39.8958 44.3741 39.7425 44.1872 40.0264 43.9814C40.2714 43.805 40.5468 43.8121 40.6583 44.1219C40.7797 44.4577 41.4016 44.6839 40.9139 45.1714C40.2593 45.8255 39.9995 45.8775 39.352 45.4595C38.8529 45.1293 38.5576 44.6635 38.3943 44.1015C38.2594 43.6371 38.6009 43.3835 38.8508 43.1236C39.1007 42.8637 39.4379 42.8805 39.7503 43.0786C39.8468 43.1377 39.9562 43.1882 39.9711 43.3575Z" fill="#F1F1F7"/>
<path d="M42.1408 42.8849C41.8263 43.0493 41.8093 43.2867 42.0038 43.5951C42.1217 43.782 42.5065 43.9548 42.1671 44.2077C41.8739 44.4255 41.7184 44.089 41.5573 43.9169C41.1767 43.5115 40.8125 43.0914 40.4426 42.6769C40.3007 42.5168 40.143 42.3369 40.3418 42.1388C40.5165 41.9639 40.6847 42.0945 40.8154 42.24C40.9779 42.4212 41.1703 42.6151 41.4053 42.4381C41.6843 42.2273 41.5133 41.9892 41.3542 41.7777C41.2293 41.6126 41.176 41.4335 41.362 41.2916C41.5282 41.1658 41.678 41.2853 41.788 41.4068C42.2376 41.9051 42.6811 42.4086 43.1184 42.9172C43.2242 43.0408 43.3123 43.1982 43.1582 43.3485C42.9701 43.5291 42.816 43.3949 42.684 43.2579C42.5391 43.1097 42.4277 42.9242 42.1408 42.8849Z" fill="#F1F1F7"/>
<path d="M32.4087 46.408C32.4797 46.002 32.5507 45.5067 33.1485 45.3754C33.6845 45.258 34.1715 45.577 34.3433 46.1846C34.4803 46.6694 34.6124 47.1639 34.4044 47.6754C34.2673 48.0133 34.0274 48.2072 33.6781 48.2374C33.3288 48.2676 33.0342 48.1671 32.8354 47.8594C32.5649 47.4421 32.4264 46.9855 32.4087 46.408ZM33.9408 46.9391C33.874 46.5556 33.8939 46.054 33.3529 46.0139C33.0171 45.9886 32.9589 46.3392 32.9823 46.6321C33.0157 47.0494 33.059 47.5271 33.5737 47.5784C33.9216 47.6143 33.9216 47.2272 33.9408 46.9391Z" fill="#F1F1F7"/>
<path d="M23.2616 44.8827C23.1466 45.4602 22.9173 46.0306 22.3962 46.4332C21.9141 46.8055 21.452 46.5568 21.0473 46.2927C20.6213 46.0116 20.9692 45.6843 21.0984 45.3955C21.2546 45.0376 21.4332 44.6897 21.633 44.3537C21.7842 44.105 21.8368 43.6463 22.2904 43.8114C22.7682 43.9828 23.2588 44.1992 23.2616 44.8827ZM22.6099 45.111C22.595 44.8954 22.6262 44.582 22.3586 44.6256C21.8396 44.7106 21.8098 45.2333 21.6564 45.6168C21.5805 45.8051 21.7409 45.9238 21.9269 45.9126C22.4388 45.881 22.4998 45.4672 22.6099 45.111Z" fill="#F1F1F7"/>
<path d="M24.55 46.8415C24.6558 46.4467 24.8113 45.8699 24.966 45.2924C25.0072 45.1393 25.0967 45.0473 25.2642 45.0761C25.4822 45.1126 25.5035 45.2664 25.4609 45.4421C25.375 45.7996 25.2777 46.1551 25.1968 46.5134C25.1329 46.7944 24.9561 47.1731 25.3515 47.2862C25.7931 47.414 25.8357 46.9658 25.9372 46.682C26.0452 46.3799 26.1147 46.0645 26.1964 45.7533C26.251 45.5425 26.3185 45.3226 26.6003 45.402C26.8602 45.4723 26.7721 45.6957 26.7253 45.865C26.5783 46.3954 26.437 46.9279 26.256 47.447C26.0799 47.9521 25.6817 48.0674 25.1868 47.9479C24.692 47.8285 24.4968 47.5131 24.55 46.8415Z" fill="#F1F1F7"/>
<path d="M17.8603 44.2196C17.5494 43.9316 17.2129 43.6794 16.9552 43.364C16.7273 43.083 17.0482 42.9151 17.2043 42.7317C17.5063 42.3809 17.814 42.0358 18.1273 41.6962C18.2962 41.515 18.461 41.2171 18.7378 41.3175C19.107 41.4517 19.4038 41.7334 19.6231 42.0685C19.6554 42.1181 19.6665 42.1782 19.6541 42.2358C19.6418 42.2935 19.6069 42.3439 19.5571 42.3762C19.3974 42.4978 19.2547 42.4233 19.1127 42.3271C18.9707 42.2308 18.8081 42.0355 18.6257 42.2027C18.429 42.3812 18.6384 42.5273 18.7364 42.6727C18.8166 42.7921 18.8883 42.9144 18.7563 43.0429C18.7136 43.0826 18.66 43.1092 18.6023 43.1193C18.5445 43.1294 18.4851 43.1226 18.4311 43.0998C18.2274 43.0366 18.0101 42.7359 17.8213 42.9853C17.5828 43.3014 17.9633 43.4448 18.1216 43.6527C18.3303 43.9316 18.1159 44.0588 17.8603 44.2196Z" fill="#F1F1F7"/>
<path d="M27.7684 48.4466C27.5675 48.4662 27.3559 48.351 27.2004 48.1213C27.1046 47.9808 27.0229 47.834 27.1394 47.6787C27.2771 47.4961 27.4269 47.6036 27.5653 47.6977C27.7407 47.8185 27.9643 47.9864 28.0978 47.7321C28.2519 47.4392 27.9672 47.3886 27.7478 47.2804C27.2558 47.0366 27.0797 46.3615 27.3687 45.9056C27.6207 45.5073 27.9927 45.4623 28.4052 45.64C28.6352 45.7391 28.8312 45.9112 28.7538 46.1683C28.6551 46.4985 28.4315 46.2969 28.2504 46.2217C28.1376 46.1747 27.9977 46.1466 27.9381 46.2632C27.85 46.4367 27.9558 46.5702 28.1134 46.6559C28.4989 46.8666 28.817 47.1083 28.7666 47.6155C28.7055 48.1677 28.413 48.4459 27.7684 48.4466Z" fill="#F1F1F7"/>
<path d="M19.9406 45.6043C19.8885 45.6074 19.8373 45.5901 19.7981 45.556C19.7589 45.5219 19.7348 45.4739 19.7312 45.4224C19.6602 44.9264 19.3578 44.8119 18.8856 44.821C18.503 44.8288 18.5385 44.54 18.7522 44.3616C19.3097 43.9148 19.8432 43.4392 20.3503 42.9369C20.4759 42.8105 20.652 42.8301 20.8103 42.892C20.8775 42.9169 20.9329 42.9657 20.9658 43.0287C20.9987 43.0918 21.0068 43.1647 20.9885 43.2334C20.8053 44.037 20.3453 44.7339 20.072 45.5039C20.0542 45.5538 19.9726 45.5812 19.9406 45.6043Z" fill="#F1F1F7"/>
<path d="M31.892 45.983C31.8785 46.0265 31.8785 46.0904 31.8487 46.1108C31.1309 46.5899 31.4561 47.3009 31.4355 47.9324C31.4291 48.1277 31.5519 48.3834 31.236 48.4242C30.881 48.4663 30.9144 48.1748 30.8909 47.9535C30.8512 47.5891 30.8155 47.2241 30.7837 46.8583C30.7653 46.6433 30.7248 46.4431 30.4891 46.3595C30.2918 46.2892 30.1625 46.1768 30.2264 45.9506C30.2804 45.7603 30.4579 45.7307 30.6148 45.716C30.9144 45.6879 31.2161 45.6816 31.5178 45.6746C31.7287 45.6668 31.8756 45.7518 31.892 45.983Z" fill="#F1F1F7"/>
<path d="M17.6344 40.1619C17.5478 40.5202 17.2553 40.6579 17.038 40.8567C16.6511 41.208 16.0036 41.4524 16.5872 42.1563C16.7214 42.3179 16.5617 42.5343 16.3515 42.561C15.878 42.6207 15.7892 42.1458 15.5273 41.9154C15.3051 41.7201 15.413 41.4939 15.6132 41.326C16.1215 40.8895 16.631 40.4544 17.1417 40.0207C17.2539 39.9252 17.3795 39.8535 17.5123 39.9589C17.5769 40.0102 17.6032 40.1078 17.6344 40.1619Z" fill="#F1F1F7"/>
<path d="M43.2048 40.2378C43.214 40.7373 43.7174 40.8848 43.9637 41.2213C44.1398 41.4608 44.8086 41.5669 44.4124 41.9835C44.0163 42.4001 43.8494 41.7728 43.5832 41.6027C43.1849 41.3527 42.9499 40.8047 42.2797 41.1012C41.9886 41.2304 41.836 40.8904 42.0021 40.6143C42.1548 40.3607 42.3798 40.1485 42.5836 39.9266C42.7064 39.7938 42.837 39.621 43.0507 39.701C43.2971 39.7903 43.3241 39.9863 43.2048 40.2378Z" fill="#F1F1F7"/>
<path d="M35.8842 44.7268C36.0972 44.7542 36.1583 44.9081 36.2236 45.0556C36.3542 45.3499 36.4962 45.6408 36.6048 45.9436C36.7397 46.318 36.9349 46.5618 37.3758 46.3946C37.603 46.3082 37.7308 46.3861 37.8018 46.599C37.8167 46.6371 37.8237 46.6777 37.8222 46.7185C37.8208 46.7593 37.8111 46.7994 37.7935 46.8364C37.776 46.8734 37.7511 46.9064 37.7203 46.9336C37.6895 46.9608 37.6535 46.9815 37.6144 46.9945C36.8434 47.3184 36.5786 47.6015 36.2726 46.6081C36.1171 46.1044 35.8935 45.6246 35.6975 45.1329C35.6123 44.9158 35.6592 44.776 35.8842 44.7268Z" fill="#F1F1F7"/>
<path d="M38.8586 46.1495C38.8664 46.323 38.8046 46.4115 38.686 46.4614C38.6602 46.4752 38.6318 46.4837 38.6025 46.4864C38.5733 46.4892 38.5438 46.486 38.5158 46.4773C38.4877 46.4685 38.4618 46.4542 38.4395 46.4353C38.4171 46.4164 38.3989 46.3933 38.3857 46.3673C38.0274 45.6966 37.6746 45.0227 37.3272 44.3455C37.3017 44.2921 37.2963 44.2314 37.3121 44.1745C37.3278 44.1175 37.3637 44.068 37.4131 44.0349C37.5168 43.9598 37.6538 43.9605 37.7255 44.0659C38.1719 44.7216 38.5515 45.4196 38.8586 46.1495Z" fill="#F1F1F7"/>
<path d="M33.8222 43.7722C33.5027 44.0588 33.2379 43.8347 32.9809 43.7989C31.9806 43.6584 30.9881 43.5699 30.0154 43.9478C29.7954 44.0335 29.5419 44.1249 29.3325 44.0265C28.4188 43.5973 27.4312 43.4722 26.4472 43.2692C27.0954 42.866 27.7493 43.0472 28.3797 43.2727C29.1607 43.5537 29.2139 43.5355 29.1926 42.7318C29.1834 42.3854 29.1884 42.0384 29.1891 41.6914C29.1891 40.9088 28.9555 40.6144 28.1781 40.4634C27.8572 40.4008 27.5306 40.3671 27.2055 40.3299C26.4692 40.247 26.0163 40.5673 25.7813 41.2635C25.5108 42.0658 25.5087 42.0236 24.7164 41.6675C22.2103 40.5435 20.2941 38.7794 18.8898 36.4569C18.6825 36.1134 18.412 35.9771 18.0294 35.9877C17.5856 35.9996 17.1419 36.008 16.6982 36.0094C16.4242 36.0094 16.0869 36.0994 15.9272 35.8212C15.7852 35.5739 16.0181 35.3491 16.1445 35.1334C16.4845 34.5545 16.7884 33.9511 17.1725 33.4024C17.5431 32.8727 17.3428 32.6964 16.8104 32.5707C16.1977 32.4259 15.5971 32.2299 14.9901 32.062C14.4597 31.9159 14.4037 31.6588 14.7927 31.2893C15.3472 30.7596 15.8981 30.2257 16.4597 29.703C16.7912 29.3946 16.8381 29.1642 16.378 28.9148C15.8264 28.6155 15.3053 28.2607 14.7721 27.927C14.141 27.5322 14.1467 27.384 14.8239 27.0138C15.4572 26.6688 16.0898 26.3204 16.7408 26.0071C17.1888 25.7907 17.203 25.5596 16.8771 25.2252C16.4064 24.744 15.9599 24.2417 15.4849 23.7626C15.093 23.3699 15.1399 23.1401 15.6979 23.0221C16.4746 22.8577 17.2456 22.6638 18.0258 22.517C18.4923 22.4299 18.6293 22.276 18.368 21.8285C18.0421 21.2665 17.7603 20.6834 17.4834 20.0976C17.1895 19.4772 17.2704 19.3536 17.9499 19.3796C18.7204 19.4091 19.4902 19.4519 20.2593 19.5081C20.6966 19.5405 20.855 19.4196 20.7378 18.956C20.5738 18.3069 20.468 17.6423 20.3488 16.9826C20.2423 16.3967 20.4148 16.2562 20.9877 16.4515C21.7147 16.6993 22.4405 16.951 23.1651 17.2067C23.6557 17.3795 23.8502 17.213 23.8559 16.7016C23.8623 16.0553 23.9049 15.4069 23.9653 14.7627C24.0171 14.214 24.2315 14.1255 24.6901 14.4346C25.2503 14.8119 25.826 15.1701 26.3521 15.5909C26.8491 15.9886 27.1593 16.0202 27.4603 15.3767C27.7443 14.7718 28.127 14.2119 28.4784 13.6394C28.8071 13.1041 28.9754 13.1012 29.2991 13.6239C29.6228 14.1466 29.97 14.684 30.2441 15.2397C30.5181 15.7954 30.768 15.756 31.1549 15.3444C31.6476 14.8196 32.1801 14.332 32.7083 13.8424C33.1605 13.4209 33.3472 13.4729 33.5191 14.063C33.7036 14.7079 33.8584 15.3612 34.0196 16.0117C34.1161 16.4002 34.3035 16.4965 34.6756 16.2928C35.3465 15.9183 36.0323 15.5692 36.7131 15.2116C37.3641 14.8702 37.4536 14.9243 37.4451 15.6724C37.438 16.2963 37.4266 16.9208 37.3968 17.5446C37.3741 18.016 37.5622 18.1692 38.0286 18.0582C38.7315 17.891 39.4422 17.7589 40.1471 17.6008C40.3722 17.5502 40.6115 17.4104 40.8053 17.6057C40.9991 17.801 40.8415 18.0483 40.7804 18.2591C40.6065 18.8583 40.4375 19.4625 40.2125 20.0428C40.0215 20.531 40.2125 20.6125 40.6583 20.6933C41.4698 20.8394 42.282 20.727 43.092 20.8008C43.5982 20.8471 43.6515 21.0452 43.4129 21.4155C43.048 21.9775 42.6888 22.5493 42.2898 23.0903C41.9703 23.5244 41.9852 23.7555 42.5603 23.9164C43.322 24.1307 44.0604 24.4271 44.8144 24.6709C45.3056 24.8297 45.273 25.0756 44.9492 25.3615C44.4083 25.8378 43.8566 26.3028 43.3014 26.7623C42.9862 27.0229 42.9884 27.233 43.3384 27.4648C44.0192 27.9123 44.6802 28.3886 45.3653 28.8291C45.836 29.1326 45.7352 29.3567 45.3056 29.5611C44.6965 29.8519 44.084 30.1362 43.4683 30.4139C43.0217 30.6156 42.9301 30.853 43.2887 31.2457C43.7736 31.7768 44.2166 32.3451 44.683 32.8924C44.8356 33.0708 45.038 33.257 44.9521 33.4945C44.8726 33.7186 44.5971 33.668 44.3976 33.7052C43.7991 33.805 43.2013 33.9075 42.6036 34.0094C42.0867 34.0972 41.932 34.3642 42.1584 34.8475C42.4531 35.4755 42.7264 36.112 43.021 36.7408C43.1232 36.9571 43.2447 37.1798 43.1062 37.3941C42.9678 37.6084 42.7136 37.5283 42.5255 37.4728C41.2412 37.0913 40.3615 37.4278 39.5025 38.5497C38.1848 40.2702 36.2843 41.2832 34.2567 42.1058C33.4211 42.4459 33.3813 42.1389 33.2095 41.5487C32.8844 40.4311 30.9093 40.0278 30.1021 40.8807C29.7826 41.2186 29.8983 41.6239 29.8891 42.0047C29.86 43.4476 29.8699 43.4455 31.2962 43.4462C31.7165 43.4462 32.1375 43.4849 32.5578 43.4736C32.9923 43.4561 33.3572 43.7027 33.8222 43.7722ZM38.9573 29.0433C38.7784 23.9965 34.5762 20.1039 29.4936 20.2767C24.431 20.4488 20.468 24.6182 20.6406 29.5906C20.8138 34.5953 24.9748 38.4991 29.9501 38.3994C35.2236 38.294 39.1348 33.9511 38.9573 29.0433ZM31.7207 39.9491C32.4257 40.1866 32.961 40.8125 33.7675 40.5491C39.6445 38.627 43.0182 31.8471 41.0651 25.9909C39.0858 20.0575 32.7587 16.6068 26.739 18.309C21.9469 19.6641 18.9786 22.8591 18.1735 27.6678C17.3308 32.6978 19.4883 36.9564 23.8467 39.6499C24.759 40.2119 25.6926 40.5842 26.7681 40.1009C26.9101 40.0369 27.1316 40.0447 27.1423 39.8515C27.1529 39.6583 26.9357 39.6407 26.7873 39.5824C26.274 39.3822 25.7465 39.2115 25.2503 38.9755C18.8707 35.942 17.1668 27.8146 21.8879 22.6406C27.2126 16.8098 36.2999 18.3321 39.5479 25.5013C41.364 29.5056 40.1109 34.7351 36.7152 37.4826C35.2364 38.679 33.5766 39.4749 31.7207 39.9491Z" fill="#4F39F6"/>
<path d="M33.9405 46.939C33.9185 47.227 33.9235 47.6134 33.5735 47.5782C33.0588 47.527 33.0155 47.0493 32.9821 46.632C32.9587 46.339 33.0169 45.9885 33.3527 46.0137C33.8937 46.0538 33.8738 46.5554 33.9405 46.939Z" fill="#4F39F6"/>
<path d="M22.61 45.1111C22.4999 45.4673 22.4389 45.8839 21.927 45.9127C21.741 45.9239 21.5805 45.8052 21.6565 45.6169C21.8098 45.2334 21.8397 44.7107 22.3586 44.6257C22.6263 44.5821 22.5951 44.8954 22.61 45.1111Z" fill="#4F39F6"/>
<path d="M38.9569 29.0432C39.1344 33.9509 35.2233 38.2939 29.9498 38.3992C24.9759 38.499 20.8134 34.5951 20.6402 29.5904C20.4677 24.6181 24.4306 20.4486 29.4933 20.2765C34.5758 20.1037 38.778 23.9963 38.9569 29.0432ZM24.9475 31.5055C24.8019 31.5406 24.6258 31.431 24.4867 31.62C24.8474 32.0633 25.2045 32.4244 25.8853 32.2115C26.175 32.1209 26.5243 32.1567 26.8452 32.2818C26.9708 32.3316 27.2001 32.4398 27.2321 32.1911C27.2576 31.9853 27.1703 31.7795 26.8814 31.7809C26.6492 31.7809 26.4171 31.7661 26.1849 31.7577C26.4909 31.5729 26.5647 31.3362 26.2687 31.1008C25.8938 30.8065 25.9932 30.4805 26.0855 30.1026C26.3588 28.9785 26.5945 27.8545 26.8487 26.7263C26.9467 26.2907 26.8175 26.068 26.3269 26.0751C25.2286 26.0912 24.1296 26.0968 23.0313 26.0751C22.5734 26.0666 22.3689 26.2858 22.2227 26.6792C21.4417 28.7832 21.5993 30.8528 22.4946 32.8691C22.8311 33.6271 23.3465 34.3001 23.9478 34.8909C24.0444 34.9857 24.1537 35.1199 24.3028 35.0475C24.4519 34.9752 24.393 34.8122 24.3774 34.6801C24.322 34.2193 24.2602 33.7964 23.786 33.5027C23.4333 33.2752 23.1371 32.9716 22.9198 32.6147C22.5045 31.9368 22.1261 31.2217 22.3952 30.3772C22.5535 30.8135 22.6657 31.2715 22.9866 31.6123C23.1115 31.7436 23.355 31.861 23.5623 31.7008C23.7902 31.5244 23.5907 31.3762 23.4949 31.2322C22.9553 30.4215 23.0065 28.8282 23.644 27.8882C23.9393 28.5599 24.1473 29.2308 24.2176 29.9031C24.2829 30.5276 24.1104 31.1865 24.9368 31.4352C24.9482 31.4416 24.9453 31.4823 24.9475 31.5055ZM29.6651 29.2729C29.2625 29.4928 29.0183 30.2775 29.2043 30.8184C29.3889 30.5725 29.4216 30.2065 29.7723 30.1159C29.9278 30.3815 29.4883 30.7482 29.9285 30.8634C30.3445 30.973 30.375 30.6238 30.4716 30.3232C30.5958 29.9361 30.9117 29.9586 31.1879 30.1686C31.3299 30.2761 31.4009 30.4672 31.5152 30.614C31.5862 30.7046 31.6707 30.8205 31.7992 30.7664C31.988 30.6864 31.8865 30.522 31.8446 30.4096C31.7026 30.0365 31.332 29.7401 31.5493 29.2589C31.7104 28.9027 31.8013 28.5156 31.9291 28.1433C31.9823 27.9866 32.0619 27.8264 31.8496 27.7302C31.5819 27.6094 31.5479 27.4309 31.6366 27.1647C31.736 26.8577 31.9703 26.7888 32.2323 26.7839C32.8861 26.772 33.5407 26.7839 34.1953 26.7839C34.5396 26.7839 34.6645 26.9244 34.5545 27.263C34.3678 27.832 34.2151 28.413 34.0007 28.9715C33.7714 29.5708 33.7877 30.2894 33.3518 30.7692C32.9628 31.1999 33.0927 31.3165 33.5201 31.483C33.7246 31.5624 34.0618 31.5821 34.0476 31.849C34.0355 32.0773 33.7473 32.1708 33.5151 32.2354C33.4079 32.2649 33.2887 32.2951 33.278 32.4237C33.3291 32.6976 33.8062 32.5993 33.7274 32.9906C33.6429 33.0046 33.5556 33.0257 33.4676 33.0334C33.2908 33.0482 33.0657 32.9541 32.9749 33.1817C32.884 33.4093 33.0629 33.5638 33.1964 33.7233C33.3675 33.9284 33.6507 34.0542 33.6869 34.3956C33.0054 34.593 32.3629 34.2516 31.6991 34.286C31.5287 34.2952 31.3242 34.0823 31.3299 33.8392C31.337 33.54 31.5684 33.6285 31.7438 33.6285C31.9078 33.6285 31.998 33.5175 32.0455 33.3805C32.1775 32.9861 32.4376 32.6459 32.7853 32.4131C32.507 32.1848 31.8034 32.3429 32.1975 31.6551C32.3096 31.4605 32.0683 31.4556 31.9504 31.4528C31.3668 31.4416 30.783 31.4392 30.199 31.4458C29.9306 31.4458 29.7226 31.5287 29.8362 31.8631C29.8965 32.0394 29.8539 32.1694 29.7041 32.2846C29.5124 32.4342 29.5721 32.581 29.7751 32.6358C30.4851 32.8185 29.9824 33.4086 30.1542 33.7872C30.2579 34.0127 29.8702 34.2938 29.5827 34.3984C29.2036 34.5347 28.7478 34.6092 28.4234 34.4076C28.0769 34.1968 27.739 34.2277 27.3826 34.2347C27.4294 33.8919 27.69 33.6151 27.871 33.71C28.4099 33.991 28.8316 33.5133 29.3172 33.5948C29.4926 33.6236 29.6821 33.5737 29.7134 33.3952C29.751 33.1845 29.5252 33.1754 29.3804 33.1241C28.7968 32.9175 28.5071 31.9621 28.9253 31.4668C28.5284 31.4444 28.1614 31.4198 27.7936 31.4043C27.6559 31.398 27.5019 31.3882 27.4231 31.5371C27.3279 31.7162 27.4365 31.8413 27.5587 31.9586C27.7823 32.1586 27.9955 32.3696 28.1976 32.5909C28.3297 32.7475 28.3254 32.9421 28.1216 33.0658C27.9662 33.1599 27.7567 33.1599 27.6879 32.9955C27.345 32.1785 26.5711 32.5347 25.9939 32.3829C25.798 32.3316 25.4096 32.5508 25.6269 32.7805C26.2303 33.4177 25.6531 33.646 25.301 33.965C25.0043 34.2347 24.6479 34.4947 24.8403 34.9485C25.0114 35.356 25.4288 35.2527 25.7632 35.2527C26.9055 35.2527 28.0492 35.2857 29.188 35.1438C29.5202 35.1023 29.9029 35.2 29.6033 35.6236C29.2838 36.0753 29.325 36.5882 29.1603 37.0567C28.9686 37.5998 29.2618 37.656 29.6573 37.6419C29.9803 37.6307 30.3133 37.5014 30.6214 37.5527C31.8815 37.7508 31.8794 37.7684 31.8468 36.5116C31.8468 36.4413 31.8034 36.376 31.8056 36.3086C31.8191 35.7683 32.3991 35.2435 32.9415 35.2548C33.8289 35.2674 34.7164 35.2702 35.6038 35.2632C35.951 35.2632 36.2598 35.155 36.3656 34.7785C36.4763 34.3851 36.2399 34.1891 35.9183 34.0275C35.5967 33.8659 35.3127 33.6762 35.011 33.5027C34.6887 33.3137 34.656 33.096 34.9464 32.848C35.1935 32.6372 35.4434 32.4265 35.6862 32.2115C35.8452 32.071 36.0021 31.9094 35.9361 31.6762C35.8651 31.417 35.623 31.4366 35.4157 31.4289C35.2084 31.4212 34.9954 31.4247 34.7852 31.4289C34.5403 31.4324 34.2698 31.4289 34.2712 31.11C34.2712 30.8107 34.5517 30.8585 34.7519 30.8543C35.1956 30.8451 35.64 30.8346 36.0837 30.8543C36.5274 30.8739 36.6858 30.7138 36.5672 30.2761C36.313 29.3425 36.6723 28.4973 36.9932 27.6557C37.1252 27.3122 37.3538 27.2918 37.5192 27.636C37.8394 28.3048 38.1405 28.9785 37.9033 29.7562C37.7699 30.1953 37.6903 30.6498 37.5775 31.1163C37.8217 31.0917 37.9658 31.0011 38.0148 30.8353C38.2675 29.9923 38.4968 29.1563 38.2136 28.2592C37.9935 27.5616 37.471 27.0256 37.2196 26.38C36.8647 25.4667 36.3045 24.7333 35.6925 24.0048C35.3433 23.5889 35.1061 23.6936 34.9592 24.1453C34.8195 24.5374 34.7187 24.9421 34.6581 25.3536C34.5914 25.9065 34.3096 26.1011 33.7707 26.0905C32.7427 26.0709 31.7119 26.0849 30.686 26.0905C30.478 26.0905 30.26 26.0617 30.0868 26.2198C29.5046 26.7474 29.2789 27.4759 29.0488 28.1749C28.8664 28.7306 29.6573 28.5655 29.7829 28.942C29.7971 28.9856 29.8035 29.0312 29.8135 29.0755L29.6651 29.2729ZM29.8071 23.2566V23.251C31.1624 23.251 32.5184 23.251 33.8737 23.251C34.0497 23.251 34.2876 23.3212 34.3571 23.0859C34.4267 22.8505 34.2073 22.7775 34.0575 22.6721C31.8773 21.1329 27.8348 21.1174 25.6091 22.6391C25.4565 22.7438 25.2499 22.8274 25.2918 23.0493C25.3486 23.35 25.6169 23.2545 25.8079 23.2559C27.1419 23.2601 28.4738 23.2566 29.8035 23.2566H29.8071ZM28.1344 37.2668C28.324 37.2668 28.4894 37.2766 28.5874 37.1052C28.7627 36.7898 28.2785 35.7859 27.9108 35.7704C27.1653 35.7367 26.4199 35.7515 25.6709 35.7501C25.5545 35.7501 25.4288 35.7655 25.3869 35.9011C25.345 36.0367 25.421 36.1175 25.5239 36.1863C26.3248 36.7251 27.2221 37.0448 28.1344 37.2668ZM32.2997 36.3247C32.2401 36.7399 32.3068 37.0012 32.6667 36.9029C33.2489 36.7434 33.7743 36.4385 34.2719 36.1013C34.3321 36.0652 34.3786 36.0105 34.4043 35.9456C34.4299 35.8807 34.4333 35.8093 34.4139 35.7423C34.36 35.5744 34.2073 35.5843 34.0696 35.5899C33.7452 35.6018 33.4207 35.6412 33.097 35.6327C32.5233 35.6166 32.3189 35.9397 32.2997 36.3247Z" fill="#F1F1F7"/>
<path d="M31.7208 39.9489C33.5773 39.4747 35.2371 38.6788 36.716 37.4824C40.1117 34.7349 41.3647 29.5075 39.5487 25.5011C36.2985 18.332 27.2097 16.8096 21.888 22.6405C17.1668 27.8145 18.8707 35.9418 25.2517 38.9732C25.7487 39.2092 26.2754 39.3799 26.7887 39.5801C26.935 39.637 27.1529 39.6462 27.1437 39.8492C27.1345 40.0522 26.9109 40.0347 26.7696 40.0986C25.6954 40.5819 24.7604 40.2117 23.8481 39.6476C19.4897 36.9541 17.3322 32.6927 18.1749 27.6655C18.98 22.8568 21.9483 19.6618 26.7405 18.3067C32.7615 16.6045 39.0872 20.0552 41.0665 25.9886C43.0196 31.8448 39.6466 38.6247 33.769 40.5468C32.9603 40.8123 32.425 40.1864 31.7208 39.9489Z" fill="#F1F1F7"/>
<path d="M29.8182 29.0734C29.8083 29.0291 29.8019 28.9835 29.7877 28.9399C29.662 28.5634 28.8711 28.7292 29.0536 28.1728C29.2836 27.4738 29.5094 26.7453 30.0915 26.2177C30.2655 26.0596 30.4827 26.0891 30.6907 26.0884C31.7187 26.0884 32.7496 26.0716 33.7754 26.0884C34.3143 26.099 34.5962 25.9044 34.6629 25.3515C34.7234 24.94 34.8243 24.5353 34.9639 24.1432C35.1109 23.6936 35.348 23.5889 35.6973 24.0027C36.3093 24.7312 36.868 25.4667 37.2244 26.3779C37.4764 27.0235 37.9989 27.5595 38.2183 28.2571C38.5023 29.1542 38.2723 29.9909 38.0195 30.8332C37.9705 30.9969 37.8264 31.0875 37.5822 31.1142C37.6922 30.6477 37.7746 30.1932 37.9081 29.7541C38.1452 28.9764 37.8442 28.3027 37.524 27.6339C37.3586 27.2897 37.13 27.3101 36.9979 27.6536C36.6749 28.4966 36.3156 29.3396 36.5719 30.274C36.6905 30.7109 36.5272 30.8697 36.0885 30.8522C35.6497 30.8346 35.2003 30.8444 34.7566 30.8522C34.5564 30.8564 34.2774 30.8086 34.276 31.1079C34.276 31.4247 34.545 31.4303 34.79 31.4268C35.0029 31.4268 35.2103 31.4198 35.4204 31.4268C35.6305 31.4338 35.8677 31.4149 35.9408 31.6741C36.0068 31.9073 35.8499 32.0682 35.6909 32.2094C35.4481 32.4258 35.1982 32.6309 34.9511 32.8459C34.6636 33.0939 34.6934 33.3116 35.0157 33.5006C35.3175 33.6769 35.6107 33.8687 35.923 34.0254C36.2354 34.1821 36.4811 34.383 36.3703 34.7764C36.2645 35.1529 35.9557 35.2583 35.6085 35.2611C34.7211 35.2667 33.8337 35.2639 32.9462 35.2527C32.4067 35.245 31.8266 35.7697 31.8103 36.3064C31.8103 36.3767 31.8494 36.442 31.8515 36.5095C31.8841 37.7663 31.8863 37.7487 30.6261 37.5506C30.318 37.5021 29.9872 37.6286 29.662 37.6398C29.268 37.6539 28.9748 37.5977 29.165 37.0546C29.3297 36.5861 29.2886 36.0711 29.608 35.6215C29.9076 35.2 29.525 35.1002 29.1927 35.1417C28.0568 35.2822 26.9102 35.2527 25.7679 35.2506C25.4307 35.2506 25.0132 35.3538 24.845 34.9464C24.6526 34.4898 25.009 34.2298 25.3057 33.9629C25.6607 33.6439 26.2351 33.4156 25.6316 32.7784C25.4144 32.5487 25.8027 32.3295 25.9987 32.3808C26.5758 32.5326 27.3476 32.1764 27.6926 32.9934C27.7636 33.1564 27.9709 33.1564 28.1264 33.0637C28.3301 32.9414 28.3344 32.7454 28.2023 32.5888C28.0003 32.3675 27.787 32.1565 27.5634 31.9565C27.4413 31.8392 27.3327 31.7141 27.4278 31.535C27.5066 31.3861 27.6607 31.3945 27.7984 31.4022C28.1661 31.4177 28.5332 31.4423 28.93 31.4647C28.5119 31.96 28.8015 32.9154 29.3851 33.122C29.5271 33.1733 29.7557 33.181 29.7181 33.3931C29.6868 33.5716 29.4973 33.6215 29.3219 33.5926C28.8363 33.5112 28.4146 33.9889 27.8758 33.7079C27.6947 33.613 27.4342 33.8898 27.3873 34.2326C27.7423 34.2256 28.0817 34.1912 28.4281 34.4055C28.7526 34.6071 29.2091 34.5326 29.5875 34.3963C29.8785 34.2916 30.2626 34.0106 30.159 33.7851C29.9872 33.4086 30.4884 32.8164 29.7799 32.6337C29.5754 32.581 29.5158 32.4342 29.7089 32.2825C29.8587 32.1651 29.9013 32.0352 29.8409 31.861C29.7273 31.5266 29.9353 31.4465 30.2037 31.4437C30.7873 31.438 31.3711 31.4404 31.9551 31.4507C32.073 31.4507 32.3144 31.4584 32.2022 31.653C31.8082 32.3408 32.5117 32.1827 32.79 32.411C32.4408 32.643 32.1792 32.9829 32.046 33.3777C31.9984 33.5182 31.9083 33.6229 31.7443 33.6257C31.5689 33.6257 31.3375 33.5372 31.3304 33.8364C31.3247 34.0795 31.5292 34.2923 31.6996 34.2832C32.3605 34.2488 33.003 34.5902 33.6874 34.3928C33.6512 34.0514 33.3679 33.9256 33.1968 33.7205C33.0634 33.561 32.883 33.41 32.9753 33.1789C33.0676 32.9477 33.2913 33.0454 33.468 33.0306C33.5561 33.0229 33.6434 33.0018 33.7279 32.9878C33.8067 32.5965 33.3296 32.6948 33.2785 32.4209C33.2891 32.2923 33.4084 32.2621 33.5156 32.2326C33.7478 32.168 34.036 32.0745 34.0481 31.8462C34.0623 31.5792 33.725 31.5596 33.5206 31.4802C33.0946 31.3137 32.9633 31.1992 33.3523 30.7664C33.7854 30.2866 33.7719 29.568 34.0012 28.9687C34.2142 28.4102 34.3683 27.8292 34.555 27.2602C34.665 26.9244 34.5401 26.7804 34.1957 26.7811C33.5412 26.7811 32.8866 26.7713 32.2327 26.7811C31.9708 26.786 31.7358 26.8549 31.6371 27.1619C31.5512 27.4281 31.5853 27.6065 31.8501 27.7274C32.0631 27.8236 31.9828 27.9838 31.9296 28.1405C31.8018 28.5128 31.7109 28.8999 31.5498 29.256C31.3325 29.7373 31.7052 30.0337 31.8451 30.4068C31.887 30.5192 31.9871 30.6835 31.7997 30.7636C31.6726 30.8177 31.5867 30.7018 31.5157 30.6112C31.4028 30.4644 31.3297 30.2733 31.1884 30.1658C30.9122 29.955 30.5963 29.9333 30.4721 30.3204C30.3755 30.621 30.345 30.9702 29.9289 30.8606C29.4881 30.7447 29.9289 30.3787 29.7728 30.1131C29.4235 30.2044 29.3908 30.5704 29.2048 30.8156C29.0188 30.2726 29.263 29.4879 29.6655 29.2666C29.7209 29.2736 29.7976 29.308 29.8288 29.2841C29.9105 29.2258 29.875 29.1436 29.8182 29.0734ZM31.2523 28.9975C31.1607 28.8289 31.4078 28.3582 30.8718 28.3653C30.5012 28.3653 30.46 28.6765 30.4579 28.9631C30.4557 29.2497 30.4579 29.5511 30.8497 29.5602C31.1486 29.5666 31.3346 29.4225 31.2523 28.9975ZM31.1351 27.4232C31.0556 27.1893 30.8639 27.1654 30.685 27.1829C30.3769 27.2124 30.0802 27.3136 30.0376 27.6698C30.0191 27.8229 30.1945 27.9058 30.3357 27.8552C30.6226 27.7555 30.9761 27.7534 31.1351 27.4253V27.4232ZM26.6916 33.6341C26.4076 33.8793 26.086 33.932 25.998 34.4118C26.36 34.1884 26.6362 34.0956 26.6916 33.6341Z" fill="#4F39F6"/>
<path d="M24.9476 31.5056C24.9476 31.4824 24.9476 31.4417 24.9398 31.4354C24.1134 31.1867 24.2859 30.5277 24.2206 29.9032C24.1496 29.2309 23.9423 28.56 23.647 27.8884C23.008 28.8283 22.9583 30.4216 23.4979 31.2323C23.5937 31.3728 23.7932 31.5246 23.5653 31.7009C23.358 31.8611 23.1145 31.7438 22.9895 31.6124C22.6686 31.2717 22.5565 30.8136 22.3982 30.3774C22.1291 31.2204 22.5075 31.9369 22.9228 32.6149C23.1401 32.9717 23.4362 33.2753 23.7889 33.5028C24.2632 33.7965 24.325 34.2194 24.3803 34.6803C24.396 34.8123 24.4641 34.9725 24.3058 35.0477C24.1475 35.1228 24.0445 34.9858 23.9508 34.891C23.3488 34.3002 22.8341 33.6265 22.4976 32.8692C21.6023 30.853 21.4433 28.7834 22.2256 26.6793C22.3719 26.2859 22.5764 26.0668 23.0343 26.0752C24.1326 26.0949 25.2316 26.0892 26.3299 26.0752C26.8204 26.0682 26.9496 26.2909 26.8517 26.7264C26.5975 27.8504 26.3618 28.9815 26.0885 30.1027C25.9962 30.4806 25.8968 30.8052 26.2716 31.101C26.5677 31.3335 26.4939 31.573 26.1879 31.7578H25.1819L24.9817 31.5723L24.9895 31.526L24.9476 31.5056Z" fill="#4F39F6"/>
<path d="M29.8033 23.2567C28.4707 23.2567 27.1389 23.2602 25.8063 23.2567C25.6153 23.2567 25.347 23.3509 25.2902 23.0502C25.2483 22.8282 25.4549 22.7446 25.6075 22.6399C27.8311 21.1183 31.8735 21.1337 34.0559 22.6729C34.2057 22.7783 34.4222 22.864 34.3555 23.0867C34.2888 23.3094 34.0481 23.2511 33.872 23.2518C32.5167 23.2567 31.1607 23.2518 29.8054 23.2518L29.8033 23.2567Z" fill="#4F39F6"/>
<path d="M28.1347 37.2668C27.2224 37.0448 26.3264 36.7273 25.5249 36.185C25.4219 36.1147 25.3495 36.0283 25.3879 35.8997C25.4262 35.7712 25.5547 35.7487 25.6718 35.7487C26.4187 35.7487 27.1627 35.7354 27.9117 35.7691C28.2795 35.7859 28.7637 36.7898 28.5883 37.1038C28.4925 37.2767 28.3242 37.2703 28.1347 37.2668Z" fill="#4F39F6"/>
<path d="M32.3001 36.3249C32.3192 35.9399 32.5237 35.6168 33.0995 35.6329C33.4232 35.6414 33.7476 35.602 34.0721 35.5901C34.2098 35.5844 34.3625 35.5746 34.4164 35.7425C34.4358 35.8095 34.4324 35.8809 34.4068 35.9458C34.3811 36.0106 34.3346 36.0654 34.2744 36.1015C33.7775 36.4387 33.2514 36.7436 32.6692 36.9031C32.3072 37.0014 32.2404 36.7401 32.3001 36.3249Z" fill="#4F39F6"/>
<path d="M24.9473 31.5056L24.9892 31.5281L24.9813 31.5744C24.9849 31.6246 25.0075 31.6716 25.0447 31.706C25.0818 31.7404 25.1307 31.7597 25.1815 31.7599H26.1826C26.4147 31.7683 26.6469 31.7838 26.879 31.7831C27.168 31.7831 27.2553 31.9875 27.2298 32.1933C27.1978 32.442 26.9685 32.3338 26.8428 32.284C26.5248 32.1575 26.1726 32.1217 25.883 32.2137C25.2021 32.4245 24.845 32.0655 24.4844 31.6222C24.6257 31.4311 24.8017 31.5407 24.9473 31.5056Z" fill="#FDFDFD"/>
<path d="M31.2518 28.9975C31.3341 29.419 31.1481 29.5645 30.8492 29.5595C30.4545 29.5504 30.4552 29.2413 30.4573 28.9624C30.4595 28.6835 30.5006 28.3653 30.8684 28.3653C31.4072 28.3604 31.1602 28.831 31.2518 28.9975Z" fill="#F1F1F7"/>
<path d="M31.1346 27.4253C30.9755 27.7534 30.622 27.7555 30.3352 27.8573C30.1932 27.9079 30.0185 27.825 30.037 27.6719C30.0796 27.3157 30.3763 27.2145 30.6845 27.185C30.8634 27.171 31.0551 27.1914 31.1346 27.4253Z" fill="#F1F1F7"/>
<path d="M26.6912 33.6343C26.6358 34.0979 26.3596 34.1907 25.9976 34.412C26.0856 33.93 26.4044 33.8773 26.6912 33.6343Z" fill="#F1F1F7"/>
<path d="M29.8177 29.0735C29.8738 29.1437 29.91 29.2259 29.8283 29.2892C29.7971 29.313 29.7204 29.2786 29.665 29.2716C29.7162 29.2084 29.7666 29.1381 29.8177 29.0735Z" fill="#F1F1F7"/>
<path d="M25.1821 31.7599C25.1313 31.7597 25.0824 31.7405 25.0453 31.7061C25.0081 31.6717 24.9855 31.6247 24.9819 31.5745L25.1821 31.7599Z" fill="#F1F1F7"/>
<path d="M30.0414 59.194C27.2393 59.1593 24.4545 58.7536 21.7612 57.9878C18.4912 57.0569 15.5477 55.5529 12.7647 53.6842C10.8712 52.4103 9.15833 50.8916 7.67156 49.1684C5.5048 46.6619 3.58651 43.9699 2.45343 40.8149C1.95647 39.4295 1.4446 38.0491 0.97035 36.656C0.816679 36.1741 0.703879 35.6804 0.633124 35.18C0.389611 33.6514 -0.16344 32.1641 0.0467054 30.5716C0.1177 30.0257 0.079363 29.4609 0.0538048 28.9073C-0.0881851 25.7664 0.899355 22.846 1.81022 19.9081C2.47757 17.7535 3.50771 15.7703 4.71604 13.8743C5.22366 13.0776 5.70997 12.243 6.34467 11.556C7.85473 9.93246 9.40668 8.34197 11.0225 6.82244C13.2234 4.74792 15.8992 3.3717 18.6587 2.18586C20.7495 1.28594 22.9305 0.624179 25.218 0.411318C27.0475 0.24131 28.882 0.00386117 30.7137 0.00456368C33.9502 -0.00682897 37.1624 0.557355 40.1972 1.67022C42.5292 2.51988 44.755 3.6315 46.831 4.98326C48.8366 6.29837 50.5937 7.91695 52.2365 9.6634C54.2451 11.7867 55.9075 14.2063 57.1643 16.8353C58.1348 18.8761 58.8398 21.0076 59.3602 23.2163C60.0063 25.9799 60.2428 28.8217 60.0623 31.6527C59.9778 33.0577 59.6555 34.4628 59.3247 35.8411C58.9604 37.3578 58.5558 38.8773 58.0041 40.3372C56.9627 43.0882 55.5193 45.646 53.5648 47.866C52.1719 49.4459 50.7598 51.0413 49.1582 52.4007C46.6925 54.4914 43.8584 56.0875 40.8262 57.2206C38.9285 57.9302 36.9073 58.365 34.9067 58.7388C33.3121 59.0345 31.665 59.0521 30.0414 59.194ZM59.0726 29.5691C59.0826 13.7506 46.1515 0.956467 30.1159 0.919234C14.2393 0.882703 1.13435 13.733 1.13861 29.333C1.14287 45.3587 13.9425 58.1409 30.0165 58.1746C46.0905 58.2084 59.062 45.4367 59.0726 29.5691Z" fill="#4F39F6"/>
<path d="M59.0727 29.5686C59.062 45.4363 46.0891 58.2079 30.0166 58.1742C13.944 58.1405 1.14293 45.3583 1.13867 29.3326C1.13441 13.7326 14.2394 0.880849 30.116 0.918785C46.1509 0.956018 59.0826 13.753 59.0727 29.5686ZM58.2534 29.582C58.2818 14.2609 45.7171 1.81027 30.1643 1.74002C14.6433 1.67539 1.97925 14.1492 1.96008 29.5265C1.93879 44.8532 14.5347 57.3459 30.04 57.3783C45.5765 57.4127 58.2243 44.9508 58.2534 29.582Z" fill="white"/>
<path d="M30.1302 50.0497C18.6389 50.155 9.25765 40.7329 9.34781 29.3719C9.4394 18.2434 18.7412 8.95904 30.2856 9.03983C41.5284 9.1164 51.0637 18.3629 50.8543 29.9452C50.6569 40.858 41.5838 50.1108 30.1302 50.0497ZM30.0812 9.88074C19.1181 9.79925 10.1777 18.771 10.1699 29.5356C10.1614 40.4484 19.2963 49.3633 30.258 49.2495C35.5183 49.2026 40.5468 47.1012 44.2487 43.4028C47.9506 39.7045 50.026 34.7087 50.023 29.5033C50.0372 18.6755 40.9434 9.7592 30.0812 9.88074Z" fill="white"/>
<path d="M38.2132 6.7147C38.0144 7.23034 37.795 7.73896 37.6225 8.26022C37.4663 8.73231 37.2419 8.91918 36.7599 8.62693C36.5661 8.50961 36.3339 8.45201 36.0464 8.3368C36.5746 6.97673 37.0893 5.64688 37.6083 4.31983C37.6377 4.23386 37.6948 4.15982 37.7709 4.10908C38.1968 3.88849 39.4896 4.71113 39.4591 5.19516C39.4158 5.88503 39.3413 6.57349 39.2603 7.48044C39.7765 6.81726 40.2159 6.33604 40.5539 5.79441C40.8698 5.28509 41.2106 5.22748 41.7082 5.48319C42.0142 5.64056 42.3472 5.74312 42.7661 5.9047L41.0863 10.2603L39.7374 9.75095L40.5311 7.7509L40.4516 7.70313C40.0966 8.17241 39.7111 8.62342 39.3924 9.11658C39.1247 9.52896 38.8422 9.38494 38.4915 9.28448C38.1074 9.17419 38.0385 8.95922 38.0811 8.61429C38.1578 7.99678 38.2103 7.37576 38.2735 6.75685L38.2132 6.7147Z" fill="white"/>
<path d="M44.4103 7.00903C45.1912 7.55348 45.9161 8.01152 46.5863 8.5384C47.7335 9.44043 47.5958 10.3382 46.2228 10.9178C46.4279 11.5718 46.2838 12.1486 45.6818 12.5336C45.0641 12.9298 44.46 12.7029 43.9126 12.3636C43.2807 11.9753 42.6709 11.5529 42.0859 11.0984C41.9602 11 41.8899 10.6305 41.9744 10.504C42.7419 9.35402 43.5505 8.2307 44.4103 7.00903ZM44.2015 10.1148L43.6478 10.9009C44.0738 11.0534 44.4181 11.1862 44.7709 11.2894C44.8029 11.2986 44.9633 11.071 44.9406 11.04C44.7269 10.7422 44.4855 10.4633 44.2015 10.1169V10.1148ZM44.5466 9.51419C45.0244 9.65469 45.3218 9.75375 45.6257 9.81908C45.647 9.8233 45.7933 9.53386 45.7549 9.49031C45.581 9.2922 45.3815 9.08496 45.1465 8.98801C45.0677 8.9571 44.8547 9.2381 44.5466 9.5163V9.51419Z" fill="white"/>
<path d="M12.1733 13.6485L11.3107 14.625C11.6152 14.9004 11.8786 15.187 12.1875 15.4069C12.5936 15.6992 12.6085 15.957 12.2428 16.2886C12.0235 16.4881 11.8446 16.7312 11.5925 17.0164L8.02148 13.9569C8.37007 13.5509 8.67677 13.1919 9.04168 12.7662L10.2749 13.7356L11.1183 12.7866C10.7441 12.4311 10.3835 12.0883 9.98662 11.7124L11.031 10.5371L14.6368 13.6127C14.2172 13.985 13.826 14.6032 13.4427 14.5962C13.0266 14.5962 12.6184 14.0075 12.1733 13.6485Z" fill="white"/>
<path d="M57.1249 31.4635C56.9871 32.447 56.8743 33.3343 56.7351 34.2173C56.6471 34.7793 56.4909 35.335 55.8377 35.491C55.1846 35.647 54.5847 35.5128 54.3305 35.0814L51.8989 35.2922C51.9657 34.7063 52.0189 34.2433 52.0679 33.8218C52.6202 33.7354 53.1328 33.7263 53.5765 33.5493C53.742 33.4832 53.7483 33.0252 53.8506 32.6613C53.4033 32.6002 53.0441 32.5292 52.6827 32.5081C52.3015 32.4863 52.2326 32.3051 52.2646 31.9644C52.3647 30.9197 52.3554 30.9015 53.4076 31.0125C54.6081 31.141 55.8058 31.3026 57.1249 31.4635ZM55.93 32.9641C55.274 32.8236 54.8552 32.7013 54.8921 33.2949C54.9084 33.5584 55.1051 33.8113 55.2158 34.0677L55.93 32.9641Z" fill="white"/>
<path d="M18.1784 9.93708C18.1727 11.2402 16.9885 12.3685 15.6289 12.3671C14.3077 12.3671 13.1342 11.1026 13.1441 9.68559C13.1526 8.50326 14.471 7.29283 15.7212 7.31953C17.0559 7.34763 18.1847 8.55033 18.1784 9.93708ZM15.1369 8.69504C15.0262 8.84468 14.7266 9.08423 14.6535 9.37859C14.5115 9.96097 15.2157 10.9522 15.8164 10.974C16.1089 10.9845 16.5512 10.7408 16.6846 10.4879C16.9998 9.88931 16.0663 8.67397 15.1369 8.69504Z" fill="white"/>
<path d="M18.3977 6.7694C18.4503 5.47819 19.6629 4.46446 21.1019 4.50872C22.409 4.54876 23.4661 5.80275 23.405 7.24149C23.3496 8.54465 22.1385 9.56399 20.7072 9.5106C19.4023 9.46213 18.3402 8.20323 18.3977 6.7694ZM21.8893 7.44873C21.907 6.63311 21.2858 5.76762 20.7207 5.79361C20.1747 5.8189 19.9518 6.1547 19.9511 6.67035C19.9511 7.41922 20.5155 8.23414 21.0629 8.22992C21.6103 8.22571 21.8453 7.89272 21.8893 7.44873Z" fill="white"/>
<path d="M56.7816 25.2161C56.837 25.339 56.886 25.3987 56.8888 25.4619C56.9662 26.9253 57.329 26.7525 55.7053 26.9091C55.1956 26.9583 54.6823 26.9794 54.1718 27.0278C53.7579 27.0686 53.4569 27.2386 53.4796 27.7212C53.5038 28.2214 53.7863 28.4132 54.2606 28.3746C54.9805 28.317 55.711 28.3127 56.4167 28.1779C57.0421 28.0584 57.2232 28.2671 57.1912 28.8354C57.177 29.0834 57.2147 29.3342 57.2374 29.7409C56.0432 29.7971 54.8945 29.8526 53.7409 29.9018C53.6474 29.8981 53.5555 29.8774 53.4697 29.8407C52.6078 29.5492 52.1499 28.6134 52.2223 27.2955C52.2755 26.3239 52.7626 25.6671 53.6798 25.5259C54.7078 25.3685 55.7522 25.3144 56.7816 25.2161Z" fill="white"/>
<path d="M5.05155 23.577C5.38735 23.1007 5.70683 22.6131 6.0611 22.1502C6.73271 21.272 8.08587 21.3226 8.45291 22.3012C8.64815 22.8232 8.63253 23.4955 8.5019 24.0498C8.23354 25.1963 7.48454 25.714 6.37702 25.615C6.56658 25.0747 6.42601 24.4727 7.08697 24.0975C7.32481 23.9626 7.39367 23.5355 7.53992 23.244L7.28434 23.0719C7.11537 23.218 6.91871 23.343 6.78737 23.5151C6.51617 23.8608 6.30603 24.2549 6.01992 24.5865C5.64364 25.0234 5.1552 25.1977 4.57517 25.0017C3.97668 24.7993 3.60325 24.3778 3.66359 23.7638C3.72536 23.1372 3.85031 22.4874 4.10518 21.9169C4.38064 21.3015 4.96564 21.0493 5.73807 21.1905C5.60247 21.7792 5.66068 22.3771 5.03451 22.7515C4.86412 22.8534 4.84282 23.1983 4.75053 23.4308L5.05155 23.577Z" fill="white"/>
<path d="M8.63617 16.2456C8.29397 16.7577 8.34438 17.4855 7.42926 17.4806C6.88685 17.4771 6.65541 18.2492 7.04872 18.6594C7.31211 18.9348 7.66922 19.1378 8.01283 19.3198C8.38911 19.5193 8.84844 19.5629 9.06143 19.147C9.19561 18.8828 9.03658 18.4873 9.08557 18.1635C9.15656 17.6794 9.29855 17.2059 9.41498 16.7121C10.4558 17.1006 10.8498 18.1754 10.4565 19.1912C9.88852 20.6567 8.63759 21.2447 7.21343 20.715C5.87943 20.2183 5.21989 18.8885 5.69343 17.6478C6.22163 16.2568 7.26881 15.7265 8.63617 16.2456Z" fill="white"/>
<path d="M48.7085 17.1953C48.4245 16.5897 47.5626 16.4773 47.8714 15.5528C47.9424 15.328 47.2069 14.5159 46.9535 14.563C46.0376 14.733 45.9901 13.9378 45.3604 13.5795C46.3337 13.1748 47.1416 12.8369 47.9517 12.5032C48.3613 12.3339 48.8036 12.2173 49.1792 11.9967C49.8614 11.6005 50.3108 11.786 50.7616 12.3796C51.0272 12.7308 51.0918 12.962 50.866 13.3526C50.2405 14.4358 49.6648 15.5465 49.0656 16.6445C48.9811 16.7977 48.8746 16.941 48.7085 17.1953ZM48.6176 14.5363C48.8618 14.1492 49.0649 13.8275 49.2672 13.5057L49.1423 13.4102L48.0496 13.9371L48.6176 14.5363Z" fill="white"/>
<path d="M35.5439 8.06772C34.3874 8.18012 34.1609 8.08458 33.9074 7.37223C33.5759 7.31955 33.2344 7.25983 32.8908 7.21628C32.7814 7.20223 32.6437 7.1952 32.5571 7.24719C31.7201 7.75229 31.7201 7.75581 30.79 7.50079C30.9434 7.16851 31.0832 6.84184 31.243 6.52501C31.7435 5.53446 32.2767 4.55797 32.7459 3.55408C32.9327 3.15506 33.1925 3.13258 33.5333 3.21337C33.9323 3.3061 34.4995 3.0834 34.6429 3.69037C34.966 5.05886 35.2577 6.43508 35.5573 7.8092C35.5644 7.89558 35.5599 7.98252 35.5439 8.06772ZM33.578 4.99845L33.4438 4.98159C33.294 5.36937 33.1435 5.75435 32.9639 6.21871L33.8244 6.28053L33.578 4.99845Z" fill="white"/>
<path d="M49.126 18.084L52.0524 16.4099C51.9466 16.2062 51.8706 16.0453 51.7812 15.8914C51.4134 15.2592 51.5682 14.8735 52.2895 14.7168C52.4159 14.6894 52.6495 14.8096 52.7205 14.9276C53.3743 16.0116 54.0033 17.1096 54.7083 18.3186C54.2823 18.4956 53.8727 18.8251 53.5724 18.7464C53.2884 18.672 53.1145 18.1697 52.8561 17.8051C52.0645 18.2491 51.27 18.6347 50.543 19.1202C50.0198 19.4714 49.7621 19.3492 49.5427 18.8392C49.4398 18.6066 49.2985 18.3952 49.126 18.084Z" fill="white"/>
<path d="M55.3569 23.8742L54.86 22.6532L51.6425 23.7231C51.4678 23.2103 51.3159 22.7649 51.1377 22.2443L54.2714 21.1604C54.204 20.6932 54.0343 20.2359 54.1294 19.8389C54.1734 19.6535 54.7265 19.586 55.1447 19.428C55.5884 20.7065 56.0257 21.9359 56.4261 23.1766C56.4616 23.2876 56.2905 23.5335 56.1535 23.6142C55.9398 23.74 55.6743 23.7765 55.3569 23.8742Z" fill="white"/>
<path d="M4.4412 32.9795C5.40105 32.8094 6.23311 32.6935 7.04884 32.5053C7.60047 32.3781 7.90575 32.4484 7.90078 33.0848C7.90078 33.3321 7.98669 33.5766 8.04987 33.9138L4.70104 34.5594C4.76138 35.0062 4.8125 35.3891 4.87427 35.8499L3.65599 36.1141C3.39615 34.6915 3.14696 33.3265 2.88428 31.8863L4.13095 31.6826C4.24596 32.1547 4.33825 32.5474 4.4412 32.9795Z" fill="white"/>
<path d="M23.9355 3.68674C25.4811 3.23854 25.4811 3.23854 25.7296 4.63935C25.8538 5.34186 25.9781 6.03945 26.113 6.80098L28.1718 6.50592C28.2386 6.87685 28.2904 7.16558 28.3649 7.57796L24.7335 8.23551L23.9355 3.68674Z" fill="white"/>
<path d="M7.63469 30.2734H3.00439V28.7644H7.63469V30.2734Z" fill="white"/>
<path d="M30.1642 1.74024C14.6432 1.67561 1.97916 14.1494 1.95999 29.5267C1.93869 44.8534 14.5346 57.3461 30.0399 57.3785C45.5765 57.4101 58.2249 44.9482 58.2533 29.5794C58.2817 14.2611 45.717 1.81049 30.1642 1.74024ZM56.8859 25.462C56.9633 26.9253 57.3261 26.7525 55.7025 26.9091C55.1927 26.9583 54.6794 26.9794 54.169 27.0279C53.7551 27.0686 53.4541 27.2386 53.4768 27.7212C53.5009 28.2214 53.7835 28.4132 54.2577 28.3746C54.9776 28.317 55.7081 28.3127 56.4138 28.1779C57.0393 28.0584 57.2203 28.2671 57.1884 28.8354C57.1742 29.0834 57.2118 29.3342 57.2345 29.741C56.0404 29.7972 54.8917 29.8527 53.738 29.9018C53.6446 29.8981 53.5527 29.8774 53.4668 29.8407C52.6049 29.5492 52.147 28.6134 52.2194 27.2955C52.2727 26.3239 52.7597 25.6671 53.677 25.5259C54.705 25.3685 55.7493 25.3151 56.7759 25.2161C56.8341 25.339 56.8831 25.3987 56.8859 25.462ZM56.4266 23.1767C56.4621 23.2877 56.291 23.5336 56.154 23.6143C55.941 23.7401 55.6762 23.7766 55.3588 23.8743L54.8619 22.6533L51.6444 23.7232C51.4697 23.2104 51.3178 22.765 51.1396 22.2445L54.2733 21.1605C54.2059 20.6933 54.0362 20.236 54.1313 19.8391C54.1754 19.6536 54.7284 19.5861 55.1466 19.4281C55.5867 20.7081 56.0241 21.9361 56.4266 23.1767ZM52.289 14.717C52.4154 14.6896 52.649 14.8098 52.72 14.9278C53.3738 16.0118 54.0028 17.1098 54.7078 18.3188C54.2818 18.4958 53.8722 18.8253 53.5719 18.7466C53.2879 18.6722 53.114 18.1699 52.8556 17.8053C52.064 18.2493 51.2695 18.6349 50.5425 19.1204C50.0193 19.4716 49.7616 19.3494 49.5422 18.8394C49.4435 18.6104 49.3023 18.3989 49.1297 18.0877L52.0562 16.4136C51.9504 16.2099 51.8744 16.049 51.785 15.8951C51.4129 15.2615 51.5663 14.8772 52.289 14.717ZM49.1787 11.9969C49.861 11.6007 50.3104 11.7862 50.7612 12.3798C51.0267 12.731 51.0913 12.9622 50.8656 13.3528C50.2401 14.436 49.6643 15.5467 49.0651 16.6447C48.9807 16.8 48.8742 16.9433 48.7102 17.1983C48.4262 16.5927 47.5643 16.4803 47.8731 15.5558C47.9441 15.331 47.2086 14.5189 46.9552 14.566C46.0393 14.736 45.9918 13.9408 45.362 13.5825C46.3354 13.1778 47.1433 12.8399 47.9534 12.5062C48.3609 12.332 48.8003 12.2154 49.1787 11.9969ZM46.586 8.54055C47.7333 9.44258 47.5955 10.3404 46.2225 10.92C46.4277 11.574 46.2836 12.1508 45.6815 12.5357C45.0639 12.932 44.4597 12.705 43.9123 12.3657C43.2804 11.9767 42.6706 11.5536 42.0856 11.0984C41.96 11 41.8897 10.6305 41.9742 10.5041C42.7438 9.35406 43.5524 8.23075 44.4121 7.01119C45.1902 7.55563 45.9194 8.01367 46.586 8.54055ZM37.6087 4.32548C37.6381 4.23951 37.6952 4.16547 37.7713 4.11473C38.1972 3.89414 39.4901 4.71678 39.4595 5.20081C39.4162 5.89068 39.3417 6.57914 39.2607 7.48608C39.7769 6.82291 40.2163 6.34169 40.5543 5.80006C40.8702 5.29073 41.211 5.23313 41.7086 5.48884C42.0146 5.64621 42.3476 5.74877 42.7665 5.91035L41.0867 10.2659L39.7378 9.7566L40.5315 7.75655C40.5053 7.74039 40.479 7.72424 40.452 7.70878C40.0971 8.17806 39.7116 8.62907 39.3928 9.12223C39.1251 9.53461 38.8426 9.39059 38.4919 9.29013C38.1078 9.17984 38.0389 8.96487 38.0815 8.61994C38.1582 8.00243 38.2107 7.38141 38.2739 6.7625L38.2164 6.71473C38.0176 7.23037 37.7982 7.73899 37.6257 8.26025C37.4695 8.73234 37.2452 8.91921 36.7631 8.62696C36.5693 8.50964 36.3372 8.45204 36.0496 8.33682C36.5743 6.97957 37.089 5.64972 37.6087 4.32267V4.32548ZM31.2433 6.53067C31.7438 5.54013 32.277 4.56363 32.7462 3.55975C32.933 3.16072 33.1928 3.13824 33.5336 3.21903C33.9326 3.31176 34.4998 3.08906 34.6432 3.69603C34.9663 5.06453 35.258 6.44075 35.5576 7.81486C35.5645 7.90031 35.56 7.98629 35.5442 8.07057C34.3876 8.18298 34.1612 8.08743 33.9077 7.37509C33.5762 7.3224 33.2347 7.26269 32.8911 7.21913C32.7817 7.20508 32.644 7.19805 32.5574 7.25004C31.7204 7.75234 31.7204 7.75585 30.7903 7.50084C30.9437 7.17206 31.0814 6.84469 31.2433 6.52786V6.53067ZM30.2856 9.04285C41.5283 9.11661 51.0637 18.3631 50.8542 29.9454C50.6568 40.8582 41.5837 50.1075 30.1301 50.0499C18.6388 50.1552 9.25756 40.7332 9.34772 29.3721C9.43931 18.2436 18.7411 8.95925 30.2856 9.04004V9.04285ZM25.7298 4.64232C25.854 5.34483 25.9783 6.04242 26.1132 6.80394L28.172 6.50889C28.2388 6.87982 28.2906 7.16855 28.3644 7.58092L24.7337 8.23847L23.9343 3.68971C25.4813 3.2387 25.4813 3.2387 25.7298 4.63951V4.64232ZM21.1016 4.51165C22.4087 4.55169 23.4658 5.80568 23.4047 7.24442C23.3493 8.54758 22.1382 9.56692 20.7069 9.51353C19.4006 9.46506 18.3385 8.20546 18.396 6.77374C18.45 5.4783 19.6626 4.46458 21.1016 4.50884V4.51165ZM15.7202 7.3217C17.0556 7.3498 18.1845 8.5525 18.1781 9.93925C18.1724 11.2424 16.9882 12.3706 15.6286 12.3692C14.3074 12.3692 13.1339 11.1047 13.1438 9.68776C13.1516 8.50332 14.4686 7.29008 15.7202 7.31959V7.3217ZM9.04174 12.7697L10.2749 13.7391L11.1183 12.79C10.7442 12.4346 10.3835 12.0918 9.98668 11.7159L11.031 10.5406L14.6368 13.6127C14.2173 13.985 13.8261 14.6032 13.4427 14.5962C13.0267 14.5913 12.6185 14.0061 12.1733 13.6471L11.3107 14.6236C11.6153 14.899 11.8787 15.1856 12.1875 15.4055C12.5936 15.6977 12.6085 15.9556 12.2429 16.2872C12.0235 16.4867 11.8446 16.7297 11.5926 17.0143C10.397 15.99 9.24194 15.0016 8.02154 13.9555C8.37012 13.5509 8.67682 13.1912 9.04174 12.7697ZM5.69148 17.6507C6.22182 16.2605 7.26899 15.7301 8.63635 16.2492C8.29416 16.7613 8.34457 17.4891 7.42944 17.4842C6.88704 17.4807 6.6556 18.2528 7.04891 18.663C7.3123 18.9384 7.6694 19.1415 8.01302 19.3234C8.38929 19.5229 8.84863 19.5665 9.06161 19.1506C9.19579 18.8864 9.03677 18.4909 9.08575 18.1671C9.15675 17.683 9.29874 17.2095 9.41517 16.7157C10.456 17.1042 10.85 18.179 10.4567 19.1948C9.88871 20.6603 8.63777 21.2483 7.21361 20.7186C5.8782 20.2163 5.21795 18.8871 5.69148 17.6472V17.6507ZM3.65677 23.764C3.71853 23.1373 3.84348 22.4875 4.09836 21.9171C4.37382 21.3017 4.95881 21.0495 5.73124 21.1907C5.59564 21.7794 5.65386 22.3772 5.02768 22.7517C4.85729 22.8535 4.83599 23.1985 4.7437 23.431L5.04543 23.5771C5.38124 23.1008 5.70071 22.6133 6.05498 22.1503C6.72659 21.2722 8.07975 21.3228 8.4468 22.3014C8.64203 22.8233 8.62641 23.4956 8.49578 24.0499C8.22742 25.1964 7.47843 25.7142 6.3709 25.6151C6.56046 25.0749 6.41989 24.4728 7.08085 24.0977C7.31869 23.9628 7.38755 23.5357 7.5338 23.2441L7.27822 23.072C7.10925 23.2181 6.9126 23.3432 6.78126 23.5153C6.51006 23.8609 6.29991 24.255 6.0138 24.5866C5.63753 25.0236 5.14908 25.1978 4.56905 25.0018C3.96986 24.7995 3.59713 24.378 3.65677 23.764ZM3.00432 28.7645H7.63462V30.2735H3.00432V28.7645ZM3.65748 36.1141C3.39764 34.6916 3.14844 33.3266 2.88576 31.8864L4.13243 31.6827C4.24461 32.1548 4.33761 32.5475 4.44055 32.9795C5.4004 32.8095 6.23246 32.6936 7.0482 32.5053C7.59983 32.3782 7.90511 32.4484 7.90014 33.0849C7.90014 33.3322 7.98604 33.5767 8.04923 33.9139L4.70039 34.5595C4.76074 35.0063 4.81186 35.3891 4.87362 35.85L3.65748 36.1141ZM56.7347 34.2174C56.6467 34.7794 56.4905 35.3351 55.8374 35.491C55.1842 35.647 54.5843 35.5128 54.3301 35.0814L51.8985 35.2922C51.9653 34.7063 52.0185 34.2434 52.0675 33.8218C52.6199 33.7354 53.1324 33.7263 53.5762 33.5493C53.7416 33.4832 53.748 33.0252 53.8502 32.6613C53.4029 32.6002 53.0437 32.5292 52.6823 32.5081C52.3011 32.4864 52.2322 32.3051 52.2642 31.9644C52.3643 30.9198 52.355 30.9015 53.4072 31.0125C54.6077 31.1383 55.8054 31.2998 57.1245 31.4607C56.9868 32.4463 56.8739 33.3343 56.7347 34.2174Z" fill="#4F39F6"/>
<path d="M44.2017 10.1169C44.4857 10.4633 44.7271 10.7422 44.9408 11.04C44.9635 11.071 44.803 11.2986 44.7711 11.2894C44.4161 11.1862 44.0739 11.0534 43.6479 10.9009L44.2017 10.1169Z" fill="#4F39F6"/>
<path d="M44.5464 9.51634C44.8538 9.23534 45.0661 8.95433 45.1463 8.99016C45.3813 9.08711 45.5808 9.29435 45.7547 9.49246C45.7931 9.53601 45.6468 9.82545 45.6255 9.82123C45.3217 9.7559 45.0242 9.65895 44.5464 9.51634Z" fill="#4F39F6"/>
<path d="M15.1372 8.69508C16.0665 8.6747 17.0001 9.88935 16.6849 10.4879C16.5514 10.7408 16.1091 10.9846 15.8166 10.974C15.216 10.9522 14.5096 9.961 14.6537 9.37862C14.7268 9.08357 15.0264 8.84401 15.1372 8.69508Z" fill="#4F39F6"/>
<path d="M21.8888 7.44866C21.8448 7.89265 21.6049 8.22493 21.0625 8.22985C20.5201 8.23477 19.95 7.41915 19.9507 6.67027C19.9507 6.15463 20.1743 5.81883 20.7203 5.79354C21.284 5.76755 21.9066 6.63304 21.8888 7.44866Z" fill="#4F39F6"/>
<path d="M48.6173 14.5363L48.0493 13.937L49.1398 13.4102L49.2647 13.5057C49.0645 13.8274 48.8615 14.1492 48.6173 14.5363Z" fill="#4F39F6"/>
<path d="M33.5789 4.99831L33.8253 6.28039L32.9648 6.21857C33.1445 5.75632 33.295 5.36923 33.4448 4.98145L33.5789 4.99831Z" fill="#4F39F6"/>
<path d="M6.75252 39.1102L8.10498 39.5436L9.23238 38.6873L9.2338 40.0937L10.4052 40.8903L9.05418 41.3266L8.65022 42.6754L7.8139 41.538L6.39258 41.5753L7.22748 40.4365L6.75252 39.1102Z" fill="white"/>
<path d="M10.2354 44.9615L11.6553 45.038L12.5235 43.9246L12.8884 45.2839L14.2274 45.7574L13.034 46.521L12.9928 47.9275L11.8895 47.0395L10.5257 47.4357L11.0376 46.1234L10.2354 44.9615Z" fill="white"/>
<path d="M15.1416 49.6332L16.5367 49.3628L17.1025 48.0723L17.7933 49.3017L19.2082 49.4358L18.2405 50.4657L18.5494 51.8391L17.2601 51.2462L16.0354 51.9614L16.2065 50.5648L15.1416 49.6332Z" fill="white"/>
<path d="M21.3154 52.9413L22.555 52.2529L22.6849 50.8521L23.73 51.8061L25.1165 51.4949L24.5223 52.7734L25.25 53.9817L23.8379 53.8181L22.9007 54.876L22.6217 53.4963L21.3154 52.9413Z" fill="white"/>
<path d="M27.9458 54.2943L28.988 53.3382L28.7828 51.9458L30.0245 52.6315L31.2989 52.0083L31.0234 53.3881L32.0167 54.3955L30.6046 54.5627L29.9443 55.8082L29.3472 54.5317L27.9458 54.2943Z" fill="white"/>
<path d="M34.9707 54.0808L35.6807 52.8619L35.068 51.5925L36.4588 51.8833L37.4896 50.9153L37.6394 52.314L38.8896 52.9849L37.5911 53.5581L37.3327 54.9414L36.38 53.8967L34.9707 54.0808Z" fill="white"/>
<path d="M41.5399 51.8651L41.8438 50.491L40.8726 49.4639L42.2875 49.3255L42.9747 48.094L43.5441 49.3824L44.9406 49.6487L43.8778 50.583L44.0538 51.9796L42.827 51.2679L41.5399 51.8651Z" fill="white"/>
<path d="M47.129 47.8923L47.0708 46.4866L45.8682 45.737L47.2014 45.2481L47.55 43.8845L48.4318 44.9882L49.8503 44.8954L49.0622 46.0658L49.5897 47.3725L48.2209 46.9924L47.129 47.8923Z" fill="white"/>
<path d="M51.5362 42.71L51.1258 41.3625L49.772 40.934L50.9391 40.1317L50.9334 38.7246L52.0658 39.5754L53.4154 39.1349L52.9476 40.4633L53.7882 41.5979L52.3668 41.5684L51.5362 42.71Z" fill="white"/>
</g>
<defs>
<clipPath id="clip0_1270_731">
<rect width="60.1185" height="59.1936" fill="white"/>
</clipPath>
</defs>
</svg>
